# xmcd
#
# Track frame offsets:
#	150
#	13167
#	27077
#	40105
#	61635
#	75995
#	88425
#	102297
#	115900
#	132747
#	143825
#	157252
#	169355
#	180507
#
# Disc length: 2566 seconds
#
# Revision: 1
# Processed by: cddbd v1.4PL0 Copyright (c) Steve Scherf et al.
# Submitted via: EasyCDDAExtractor 6.0.0.1
#
DISCID=ba0a040e
DTITLE=Os 3 do Nordeste - Meu Xodó
DYEAR=1900
DGENRE=Forró
TTITLE0=Paixão Recolhida
TTITLE1=Desejo de Amar
TTITLE2=A Bicharada
TTITLE3=Asas da Paixão
TTITLE4=Caruaru Tradição
TTITLE5=Pela Mesma Porta
TTITLE6=A Tua Boca
TTITLE7=Me Sentindo Só
TTITLE8=Xote Nota Mil
TTITLE9=Paixão e Forró
TTITLE10=Agora Quem não Quer sou Eu
TTITLE11=Meu Xodó
TTITLE12=O Amor é Você
TTITLE13=Gostoso Feito Mel
EXTD=
EXTT0=
EXTT1=
EXTT2=
EXTT3=
EXTT4=
EXTT5=
EXTT6=
EXTT7=
EXTT8=
EXTT9=
EXTT10=
EXTT11=
EXTT12=
EXTT13=
PLAYORDER=
